# xmcd
#
# Track frame offsets: 
#        150
#        14137
#        28731
#        42006
#        54521
#        71664
#        86300
#        101363
#        118817
#        133695
#        148234
#
# Disc length: 2209 seconds
#
# Revision: 0
# Processed by: cddbd v1.5.2PL0 Copyright (c) Steve Scherf et al.
# Submitted via: ExactAudioCopyFreeDBPlugin 1.0
#
DISCID=9a089f0b
DTITLE=Ingram Hill - Ingram Hill
DYEAR=2012
DGENRE=Roots Rock
TTITLE0=Behind My Guitar
TTITLE1=Oh My
TTITLE2=Good Ol' Dixie
TTITLE3=Mainline Train
TTITLE4=From Afar
TTITLE5=Those Three Words
TTITLE6=Broken Hearted In Birmingham
TTITLE7=Yellow House
TTITLE8=Stuck At the Bottom
TTITLE9=Saturday Girl
TTITLE10=Who Needs a Sunny Day
EXTD=
EXTT0=
EXTT1=
EXTT2=
EXTT3=
EXTT4=
EXTT5=
EXTT6=
EXTT7=
EXTT8=
EXTT9=
EXTT10=
PLAYORDER=
